<?xml version="1.0" standalone="no"?>
<!DOCTYPE svg PUBLIC "-//W3C//DTD SVG 20010904//EN"
 "http://www.w3.org/TR/2001/REC-SVG-20010904/DTD/svg10.dtd">
<svg version="1.0" xmlns="http://www.w3.org/2000/svg"
 width="104.000000pt" height="104.000000pt" viewBox="0 0 104.000000 104.000000"
 preserveAspectRatio="xMidYMid meet">
<metadata>
Created by potrace 1.10, written by Peter Selinger 2001-2011
</metadata>
<g transform="translate(0.000000,104.000000) scale(0.100000,-0.100000)"
fill="#000000" stroke="none">
<path d="M190 517 l0 -219 113 4 c160 6 198 29 200 126 0 37 -5 49 -27 69 -15
12 -37 23 -48 23 -18 0 -16 4 12 23 41 27 53 66 37 115 -18 55 -53 69 -179 74
l-108 4 0 -219z m74 141 c-19 -36 -14 -91 12 -119 15 -17 15 -20 -5 -48 -25
-34 -27 -75 -6 -115 19 -37 19 -38 -7 -34 -23 3 -23 6 -26 163 -1 87 0 165 2
172 3 7 15 13 26 13 20 0 20 -1 4 -32z m160 6 c18 -17 21 -60 6 -69 -5 -3 -10
2 -10 12 0 11 -7 28 -15 39 -26 34 -11 49 19 18z m-62 -21 c21 -19 24 -56 6
-71 -7 -5 -26 -12 -43 -14 -30 -3 -30 -2 -33 50 -3 51 -2 52 24 52 15 0 36 -7
46 -17z m19 -173 c12 -7 19 -21 19 -40 0 -35 -23 -50 -74 -50 l-36 0 0 50 0
50 36 0 c19 0 44 -5 55 -10z m79 -49 c0 -24 -25 -61 -42 -61 -5 0 -2 13 7 30
8 16 15 42 15 57 0 22 2 25 10 13 5 -8 10 -26 10 -39z"/>
<path d="M520 693 l0 -43 58 0 57 0 -3 -175 -3 -175 55 0 56 0 0 175 0 175 58
0 57 0 -1 41 -1 41 -167 2 -166 1 0 -42z m210 -12 c0 -5 -7 -14 -15 -21 -12
-10 -15 -40 -15 -151 0 -81 -4 -140 -10 -144 -6 -4 -10 40 -10 126 0 116 -2
136 -21 165 l-21 34 46 0 c25 0 46 -4 46 -9z"/>
</g>
</svg>
